<svg width="104" height="26" viewBox="0 0 104 26" fill="none" xmlns="http://www.w3.org/2000/svg">
<path fill-rule="evenodd" clip-rule="evenodd" d="M0.913769 0C0.409108 0 0 0.409108 0 0.913769V24.9002C0 25.4048 0.409108 25.814 0.913769 25.814H12.907C20.0353 25.814 25.814 20.0353 25.814 12.907C25.814 5.77865 20.0353 0 12.907 0H0.913769ZM12.1953 19.3907C15.6169 19.3907 18.3907 16.6169 18.3907 13.1953C18.3907 9.77375 15.6169 7 12.1953 7C8.77375 7 6 9.77375 6 13.1953C6 16.6169 8.77375 19.3907 12.1953 19.3907Z" fill="#321DBF"/>
<circle cx="39.0093" cy="12.9068" r="6.19535" fill="#321DBF"/>
<circle cx="58.4" cy="12.9068" r="6.19535" fill="#321DBF"/>
<circle cx="77.7907" cy="12.9068" r="6.19535" fill="#321DBF"/>
<circle cx="97.1814" cy="12.9068" r="6.19535" fill="#321DBF"/>
</svg>
